<svg width="380" height="187" viewBox="0 0 380 187" fill="none" xmlns="http://www.w3.org/2000/svg" style="width: 100%; height: 100%;">
<g clip-path="url(#clip0_35_2916)">
<path d="M52.665 27.628C59.928 26.603 66.107 20.285 66.97 13.001C66.354 19.274 70.243 25.726 76.076 28.112C73.089 28.281 70.445 30.34 68.913 32.91C67.382 35.48 66.811 38.507 66.53 41.485C66.37 34.102 59.775 27.445 52.665 27.628Z" stroke="#010101" stroke-width="1.5" stroke-linecap="round" stroke-linejoin="round"></path>
<path d="M262.96 185.493H356.34" stroke="#010101" stroke-width="1.5" stroke-linecap="round" stroke-linejoin="round"></path>
<path d="M264.45 63.678H104.625V173.331H264.45V63.678Z" fill="white" stroke="#010101" stroke-width="1.5" stroke-linecap="round" stroke-linejoin="round"></path>
<path d="M345.86 185.493H342.614" stroke="#010101" stroke-width="1.5" stroke-linecap="round" stroke-linejoin="round"></path>
<path d="M262.96 185.493H356.34" stroke="#010101" stroke-width="1.5" stroke-linecap="round" stroke-linejoin="round"></path>
<path d="M345.86 185.493H342.614" stroke="#010101" stroke-width="1.5" stroke-linecap="round" stroke-linejoin="round"></path>
<path d="M277.139 73.712C214.402 75.278 151.624 75.483 88.719 74.342C85.834 74.29 84.735 70.551 87.134 68.947C119.244 47.479 151.764 22.03 183.814 1.148C184.617 0.625004 185.65 0.617004 186.461 1.128C218.682 21.41 249.824 47.174 278.803 68.381C281.075 70.043 279.953 73.641 277.139 73.712Z" fill="#7B5FF1" stroke="#010101" stroke-width="1.5" stroke-linecap="round" stroke-linejoin="round"></path>
<path d="M253.745 63.886C253.745 63.886 209.351 30.397 184.531 13.767C162.398 29.984 134.411 51.419 111.34 65.778C157.366 64.265 253.745 63.886 253.745 63.886Z" fill="#E3E3FF" stroke="#010101" stroke-width="1.5" stroke-linecap="round" stroke-linejoin="round"></path>
<path d="M100.312 74.504C100.172 103.249 98.91 161.553 98.91 161.553L110.678 161.704L113.113 74.69C113.113 74.69 103.558 74.614 100.312 74.504Z" fill="#7B5FF1" stroke="#010101" stroke-width="1.5" stroke-linecap="round" stroke-linejoin="round"></path>
<path d="M176.843 74.504C176.703 103.249 175.441 161.553 175.441 161.553L187.209 161.704L189.644 74.69C189.644 74.69 180.089 74.614 176.843 74.504Z" fill="#7B5FF1" stroke="#010101" stroke-width="1.5" stroke-linecap="round" stroke-linejoin="round"></path>
<path d="M253.374 74.504C253.234 103.249 251.972 161.553 251.972 161.553L263.74 161.704L266.175 74.69C266.175 74.69 256.62 74.614 253.374 74.504Z" fill="#7B5FF1" stroke="#010101" stroke-width="1.5" stroke-linecap="round" stroke-linejoin="round"></path>
<path d="M279.079 161.993C215.867 161.63 148.341 160.78 83.174 161.358C81.464 161.373 80.114 162.811 80.199 164.519C80.613 172.917 80.128 173.949 80.549 182.504C80.628 184.105 81.939 185.37 83.543 185.372C147.046 185.447 216.456 185.695 279.932 185.126C281.593 185.111 282.901 183.718 282.821 182.058L281.998 164.799C281.923 163.234 280.646 162.002 279.079 161.993Z" fill="#7B5FF1" stroke="#010101" stroke-width="1.5" stroke-linecap="round" stroke-linejoin="round"></path>
<path d="M358.916 66.707C365.166 65.825 370.482 60.389 371.225 54.121C370.695 59.518 374.041 65.071 379.061 67.124C376.491 67.269 374.215 69.041 372.898 71.253C371.58 73.465 371.089 76.069 370.848 78.632C370.71 72.279 365.035 66.55 358.917 66.708L358.916 66.707Z" stroke="#010101" stroke-width="1.5" stroke-linecap="round" stroke-linejoin="round"></path>
<path d="M0.75 139.17C7 138.288 12.316 132.852 13.059 126.584C12.529 131.981 15.875 137.534 20.895 139.587C18.325 139.732 16.049 141.504 14.732 143.716C13.414 145.928 12.923 148.532 12.682 151.095C12.544 144.742 6.869 139.013 0.751 139.171L0.75 139.17Z" stroke="#010101" stroke-width="1.5" stroke-linecap="round" stroke-linejoin="round"></path>
<path d="M245.944 161.616C245.802 158.583 246.014 155.184 245.842 151.502C250.69 151.502 259.843 151.77 269.848 151.547C270.55 154.531 270.227 158.691 270.027 161.75C259.015 161.993 252.052 161.684 245.944 161.616Z" fill="#7B5FF1" stroke="#010101" stroke-width="1.5" stroke-linecap="round" stroke-linejoin="round"></path>
<path d="M349.082 147.141C343.173 160.201 333.699 168.014 319.506 171.757L319.751 183.184C319.751 184.534 318.656 185.629 317.306 185.629H309.411C308.061 185.629 306.966 184.534 306.966 183.184V173.291C300.548 175.346 282.595 174.591 277.225 173.616V183.183C277.225 184.533 276.13 185.628 274.78 185.628H266.895C265.545 185.628 264.45 184.533 264.45 183.183V173.331C257.29 172.477 248.024 169.893 242.084 165.713C234.547 160.404 230.835 154.077 229.746 149.602C226.939 149.978 224.081 149.938 221.294 149.47C219.128 149.104 216.809 148.341 215.669 146.47C214.906 145.209 214.815 143.663 214.774 142.198C214.601 135.933 215.038 129.647 216.076 123.473C216.371 121.744 216.778 119.893 218.09 118.743C219.036 117.909 220.297 117.573 221.528 117.278C225.098 116.444 228.719 115.834 232.615 115.59C234.263 105.551 240.406 96.326 249.835 91.016C249.835 83.357 249.052 68.202 253.72 67.073C258.968 65.792 265.6 77.031 269.729 81.16C284.141 79.675 301.687 78.16 315.692 81.862C329.688 85.564 338.077 93.589 345.817 105.825C353.517 117.99 355.012 134.03 349.082 147.14V147.141Z" fill="#E3E3FF" stroke="#010101" stroke-width="1.5" stroke-linecap="round" stroke-linejoin="round"></path>
<path d="M348.044 121.015C349.08 123.493 350.598 125.816 352.709 127.477C354.82 129.137 357.564 130.082 360.224 129.712C362.884 129.342 365.381 127.535 366.253 124.995C366.546 124.141 366.654 123.192 366.363 122.338C366.072 121.484 365.321 120.754 364.422 120.662C363.118 120.53 362.053 121.682 361.404 122.821C360.384 124.611 359.819 126.879 360.76 128.712C361.358 129.878 362.479 130.691 363.655 131.271C366.903 132.872 370.869 132.934 374.165 131.436" stroke="#010101" stroke-width="1.5" stroke-linecap="round" stroke-linejoin="round"></path>
<path d="M275.422 97.282C274.955 82.888 275.366 68.465 276.65 54.121C283.988 54.561 291.344 54.694 298.693 54.52C298.316 64.709 297 74.864 294.766 84.812C294.315 86.822 293.816 88.851 292.828 90.659C291.357 93.351 288.802 95.429 285.867 96.321" fill="#55D087"></path>
<path d="M275.422 97.282C274.955 82.888 275.366 68.465 276.65 54.121C283.988 54.561 291.344 54.694 298.693 54.52C298.316 64.709 297 74.864 294.766 84.812C294.315 86.822 293.816 88.851 292.828 90.659C291.357 93.351 288.802 95.429 285.867 96.321" stroke="#010101" stroke-width="1.5" stroke-linecap="round" stroke-linejoin="round"></path>
<path d="M244.538 112.133C244.917 113.097 245.995 113.85 246.983 113.542C247.821 113.28 248.294 112.399 248.562 111.563C249.807 107.68 248.44 105.146 246.965 104.78C244.379 104.139 244.158 111.17 244.537 112.134L244.538 112.133Z" fill="#010101" stroke="#010101" stroke-width="1.5" stroke-linecap="round" stroke-linejoin="round"></path>
<path d="M254.584 72.171C257.757 73.553 259.953 76.465 262.001 79.255C262.817 80.367 263.632 81.478 264.448 82.59" stroke="#010101" stroke-width="1.5" stroke-linecap="round" stroke-linejoin="round"></path>
<path d="M275.7 96.384C282.195 80.471 296.561 47.464 296.561 47.464L329.973 60.395C329.973 60.395 319.194 83.944 314.656 96.52C302.751 95.505 278.834 96.086 275.701 96.385L275.7 96.384Z" fill="#55D087" stroke="#010101" stroke-width="1.5" stroke-linecap="round" stroke-linejoin="round"></path>
<path d="M301.007 95.582C309.058 95.582 315.584 89.0556 315.584 81.005C315.584 72.9543 309.058 66.428 301.007 66.428C292.956 66.428 286.43 72.9543 286.43 81.005C286.43 89.0556 292.956 95.582 301.007 95.582Z" fill="#55D087" stroke="#010101" stroke-width="1.5" stroke-linecap="round" stroke-linejoin="round"></path>
<path d="M293.008 82.077C292.885 81.527 292.811 80.971 292.805 80.412C291.871 80.162 290.934 79.929 289.991 79.72C290.156 79.013 290.32 78.305 290.485 77.598C291.339 77.825 292.186 78.055 293.035 78.292C293.413 76.735 294.238 75.305 295.463 74.263C296.074 74.477 296.944 74.823 297.558 75.032C296.812 76.226 296.366 77.042 295.802 78.39C295.165 79.9 295.074 82.294 296.956 82.136C297.953 82.058 298.636 80.521 299.266 79.756C302.761 75.479 305.983 76.73 307.373 78.43C308.387 79.672 308.636 80.767 308.667 82.683C309.768 83.054 312.025 83.541 312.025 83.541L311.378 85.84C311.378 85.84 309.317 85.082 308.25 84.846C308.189 85.718 307.658 87.129 307.041 87.745C306.416 87.582 305.789 87.423 305.11 87.127C305.415 85.919 306.135 84.201 306.223 82.956C306.306 81.708 305.656 80.252 304.413 79.999C303.276 79.771 302.217 80.637 301.592 81.591C300.962 82.542 300.547 83.66 299.692 84.414C298.629 85.362 296.998 85.556 295.645 85.052C293.795 84.355 293.158 82.737 293.008 82.076V82.077Z" fill="white" stroke="#010101" stroke-width="1.5" stroke-linecap="round" stroke-linejoin="round"></path>
<path d="M319.938 94.393C305.691 94.731 286.612 94.307 272.403 95.046C272.4 96.207 272.397 97.368 272.394 98.529C286.707 98.429 305.851 98.329 320.163 98.229C320.163 96.881 320.491 96.022 319.938 94.393Z" fill="white" stroke="#010101" stroke-width="1.5" stroke-linecap="round" stroke-linejoin="round"></path>
<path d="M169.147 161.257C169.005 158.224 169.217 154.825 169.045 151.143C173.893 151.143 183.046 151.411 193.051 151.188C193.753 154.172 193.43 158.332 193.23 161.391C182.218 161.634 175.255 161.325 169.147 161.257Z" fill="#7B5FF1" stroke="#010101" stroke-width="1.5" stroke-linecap="round" stroke-linejoin="round"></path>
<path d="M116.202 161.179C116.103 158.484 116.216 152.05 116.216 152.05C116.216 152.05 102.714 152.086 93.342 152.086C93.336 155.236 93.034 158.247 93.034 161.282C102.122 161.336 112.288 161.179 116.202 161.179Z" fill="#7B5FF1" stroke="#010101" stroke-width="1.5" stroke-linecap="round" stroke-linejoin="round"></path>
<path d="M53.024 185.493H72.277H53.024Z" fill="#E3E3FF"></path>
<path d="M53.024 185.493H72.277" stroke="#010101" stroke-width="1.5" stroke-linecap="round" stroke-linejoin="round"></path>
<path d="M75.522 185.493H75.673H75.522Z" fill="#E3E3FF"></path>
<path d="M75.522 185.493H75.673" stroke="#010101" stroke-width="1.5" stroke-linecap="round" stroke-linejoin="round"></path>
<path d="M72.277 185.493C72.428 181.529 72.555 178.04 72.66 174.887V174.875C72.683 174.168 72.706 173.484 72.73 172.812C72.846 169.288 72.95 166.217 73.031 163.423C73.379 151.194 73.448 154.062 74.005 138.067C74.075 135.876 74.156 133.512 74.248 130.95C74.294 129.802 74.341 128.62 74.387 127.392C74.491 124.425 74.619 121.202 74.77 117.679C74.816 116.416 74.863 115.117 74.921 113.773" stroke="#010101" stroke-width="1.5" stroke-linecap="round" stroke-linejoin="round"></path>
<path d="M73.111 173.635C72.96 174.052 72.81 174.458 72.659 174.875V174.887C71.28 178.666 69.738 182.444 67.153 185.493H53.023C49.789 181.506 47.227 176.985 45.477 172.163C43.773 167.469 42.846 162.276 44.213 157.466C44.793 155.414 45.94 153.363 47.725 152.285C48.038 152.1 48.363 151.937 48.722 151.81C50.843 151.068 53.185 151.787 55.248 152.691C59.513 154.581 63.42 157.374 66.318 161.048C68.149 163.366 69.529 165.974 70.815 168.687C71.464 170.043 72.09 171.423 72.728 172.814C72.855 173.092 72.983 173.359 73.11 173.637L73.111 173.635Z" fill="#55D087" stroke="#010101" stroke-width="1.5" stroke-linecap="round" stroke-linejoin="round"></path>
<path d="M67.774 183.575C63.023 177.426 52.496 159.401 47.726 152.283L67.774 183.575Z" fill="#E3E3FF"></path>
<path d="M67.774 183.575C63.023 177.426 52.496 159.401 47.726 152.283" stroke="#010101" stroke-width="1.5" stroke-linecap="round" stroke-linejoin="round"></path>
<path d="M100.374 146.871C100.107 150.603 99.03 154.22 97.951 157.802C95.181 167.075 92.411 176.348 89.269 185.493H65.345C65.704 184.241 66.064 182.989 66.434 181.749C66.457 181.691 66.48 181.622 66.492 181.564C67.779 177.217 69.158 172.894 70.815 168.686C71.499 166.913 72.229 165.151 73.029 163.424C73.122 163.204 73.214 162.995 73.319 162.787C77.051 154.859 82.151 147.417 89.095 142.085C91.251 140.428 94.184 139.013 96.629 139.57C97.267 139.709 97.869 139.987 98.414 140.428C100.234 141.9 100.535 144.543 100.373 146.873L100.374 146.871Z" fill="#55D087" stroke="#010101" stroke-width="1.5" stroke-linecap="round" stroke-linejoin="round"></path>
<path d="M96.63 139.569L75.673 185.493H75.522C82.094 170.262 89.073 154.753 96.63 139.569Z" fill="#E3E3FF" stroke="#010101" stroke-width="1.5" stroke-linecap="round" stroke-linejoin="round"></path>
<path d="M54.782 82.144C50.108 85.3 46.964 90.436 44.957 95.762C41.471 105.012 41.985 116.017 47.467 124.132C49.857 127.669 53.091 130.57 56.697 132.798C65.217 138.062 75.945 139.501 85.575 136.683C96.721 133.42 99.122 126.013 100.451 122.901C103.972 114.654 105.522 104.008 101.195 95.373C95.76 84.526 78.723 65.98 54.782 82.144Z" fill="white" stroke="#010101" stroke-width="1.5" stroke-linecap="round" stroke-linejoin="round"></path>
<path d="M59.041 87.787C55.434 90.223 53.007 94.187 51.458 98.297C48.768 105.436 49.164 113.929 53.395 120.191C55.239 122.921 57.735 125.16 60.518 126.879C67.093 130.941 75.373 132.052 82.805 129.877C91.407 127.359 93.26 121.643 94.286 119.241C97.003 112.877 98.199 104.661 94.86 97.996C90.666 89.625 77.517 75.312 59.04 87.786L59.041 87.787Z" fill="#E3E3FF" stroke="#010101" stroke-width="1.5" stroke-linecap="round" stroke-linejoin="round"></path>
<path d="M79.001 120.882C78.117 121.373 77.197 121.782 76.238 122.077C76.281 123.812 76.357 125.543 76.475 127.272C75.174 127.348 73.873 127.423 72.572 127.499C72.53 125.913 72.495 124.34 72.473 122.758C69.602 122.897 66.722 122.203 64.306 120.624C64.365 119.464 64.518 117.79 64.567 116.628C67 117.306 68.632 117.659 71.238 117.946C74.16 118.276 78.327 117.218 77.1 114.059C76.459 112.383 73.467 111.986 71.832 111.29C62.697 107.445 63.215 101.264 65.437 98.009C67.061 95.634 68.819 94.649 72.101 93.625C72.181 91.542 71.874 87.409 71.874 87.409L76.16 87.356C76.16 87.356 75.901 91.288 76.036 93.245C77.568 92.907 80.266 93.106 81.639 93.855C81.675 95.013 81.72 96.173 81.556 97.493C79.322 97.581 76 97.213 73.812 97.693C71.621 98.184 69.445 100.042 69.641 102.309C69.825 104.382 71.852 105.765 73.812 106.356C75.769 106.958 77.903 107.105 79.635 108.194C81.806 109.542 82.968 112.252 82.785 114.836C82.523 118.374 80.063 120.291 79.001 120.884V120.882Z" fill="white" stroke="#010101" stroke-width="1.5" stroke-linecap="round" stroke-linejoin="round"></path>
</g>
<defs>
<clipPath id="clip0_35_2916">
<rect width="379.811" height="186.379" fill="white"></rect>
</clipPath>
</defs>
</svg>